<?xml version="1.0" encoding="utf-8"?>
<!-- Generator: Adobe Illustrator 19.1.0, SVG Export Plug-In . SVG Version: 6.00 Build 0)  -->
<svg version="1.1" id="レイヤー_1" xmlns="http://www.w3.org/2000/svg" xmlns:xlink="http://www.w3.org/1999/xlink" x="0px"
	 y="0px" viewBox="0 0 100 100" style="enable-background:new 0 0 100 100;" xml:space="preserve">
<style type="text/css">
	.st0{fill:#FF64B1;}
</style>
<path class="st0" d="M92.9,34.8C93,34.5,93,34.2,93,34L93,5c0-1.7-1.4-3-3-3L61.1,2c-0.3,0-0.6-0.1-0.9,0c-1.3,0.2-2.6,0.6-3.6,1.6
	L2.9,57.4c-2.3,2.3-2.4,6.7-0.1,9l25.9,25.9c2.3,2.3,6.6,2.1,8.9-0.2l53.7-53.7C92.2,37.3,92.7,36,92.9,34.8z M66,28.9
	c-4.4-4.4-4.4-11.6,0-16c4.4-4.4,11.6-4.4,16,0s4.4,11.6,0,16C77.5,33.4,70.4,33.4,66,28.9z"/>
</svg>
