<?xml version="1.0" encoding="utf-8"?>
<!-- Generator: Adobe Illustrator 19.2.1, SVG Export Plug-In . SVG Version: 6.00 Build 0)  -->
<svg version="1.1" id="レイヤー_1" xmlns="http://www.w3.org/2000/svg" xmlns:xlink="http://www.w3.org/1999/xlink" x="0px"
	 y="0px" viewBox="0 0 100 100" style="enable-background:new 0 0 100 100;" xml:space="preserve">
<style type="text/css">
	.st0{fill:#FF64B1;}
</style>
<g>
	<path class="st0" d="M86.5,48.4l-9.3,9.3c-2.6,2.6-6.7,2.6-9.2,0c-2.6-2.6-2.6-6.7,0-9.2l9.3-9.3c4.5-4.5,4.5-11.9-0.1-16.4
		c-4.5-4.5-11.8-4.5-16.3,0L51.5,32c-2.6,2.6-6.7,2.6-9.2,0c-2.6-2.6-2.6-6.7,0-9.2l9.3-9.3c9.6-9.6,25.2-9.6,34.8,0l0,0l0,0l0,0
		l0,0l0,0C96,23.2,96.1,38.8,86.5,48.4z"/>
	<path class="st0" d="M57.7,77.2l-9.3,9.3c-9.6,9.6-25.3,9.6-34.9-0.1c-9.6-9.6-9.6-25.2,0-34.8l9.3-9.3c2.6-2.6,6.7-2.6,9.2,0
		c2.6,2.6,2.6,6.7,0,9.2l-9.3,9.3c-4.5,4.5-4.5,11.8,0,16.3c4.6,4.6,12,4.6,16.5,0.1l9.3-9.3c2.6-2.6,6.7-2.6,9.2,0
		C60.3,70.5,60.3,74.7,57.7,77.2z"/>
</g>
<path class="st0" d="M63.5,45.7L45.2,64c-2.6,2.6-6.7,2.6-9.2,0c-2.6-2.6-2.6-6.7,0-9.2l18.3-18.3c2.6-2.6,6.7-2.6,9.2,0
	C66.1,39,66.1,43.2,63.5,45.7z"/>
</svg>
