<?xml version="1.0" encoding="utf-8"?>
<!-- Generator: Adobe Illustrator 19.2.1, SVG Export Plug-In . SVG Version: 6.00 Build 0)  -->
<svg version="1.1" id="レイヤー_1" xmlns="http://www.w3.org/2000/svg" xmlns:xlink="http://www.w3.org/1999/xlink" x="0px"
	 y="0px" viewBox="0 0 100 100" style="enable-background:new 0 0 100 100;" xml:space="preserve">
<style type="text/css">
	.st0{fill:#FF64B1;}
</style>
<g>
	<path class="st0" d="M17,70.5c-6.6,0-12.1,5.4-12.1,12.1c0,6.7,5.4,12,12.1,12c6.7,0,12.1-5.4,12.1-12C29.1,76,23.7,70.5,17,70.5z"
		/>
	<path class="st0" d="M5.7,35.6v15.8c11.3,0.2,21.8,4.7,29.8,12.7c8,8,12.5,18.6,12.7,29.9h15.9C63.6,62,37.7,36,5.7,35.6z"/>
	<path class="st0" d="M5.8,4.7v15.8C46,20.9,78.7,53.6,79.1,94h15.8C94.5,44.9,54.7,5.1,5.8,4.7z"/>
</g>
</svg>
